<svg xmlns="http://www.w3.org/2000/svg" viewBox="0 0 588.54 224.03" width="588.54" height="224.03">
<path d="M262.55 154.72L260.77 160.21L264.37 160.21L262.67 154.72C262.66 154.66 262.64 154.63 262.61 154.63C262.58 154.63 262.56 154.66 262.55 154.72M255.07 166.56L259.54 153.89C259.78 153.21 260.02 152.64 260.26 152.17C260.5 151.7 260.8 151.34 261.17 151.09C261.54 150.84 262.01 150.72 262.59 150.72C263.18 150.72 263.67 150.84 264.04 151.09C264.41 151.34 264.73 151.7 264.98 152.16C265.24 152.62 265.47 153.18 265.7 153.85L270.04 166.56L266.36 166.56L265.34 163.27L259.77 163.27L258.72 166.56L255.07 166.56" fill="#FFFFFF" stroke="#FFFFFF" stroke-width="0.6" stroke-linejoin="round"/>
<path d="M276.63 166.87C275.04 166.87 273.79 166.5 272.88 165.77C271.97 165.03 271.51 164.02 271.51 162.73L274.48 162.73C274.59 163.33 274.83 163.76 275.2 164.04C275.57 164.31 276.04 164.45 276.59 164.45C277.07 164.45 277.47 164.35 277.79 164.16C278.11 163.97 278.27 163.69 278.27 163.33C278.27 163.06 278.14 162.85 277.9 162.71C277.66 162.57 277.21 162.42 276.55 162.26C276.08 162.15 275.67 162.05 275.31 161.96C274.96 161.87 274.59 161.75 274.19 161.61C273.72 161.45 273.29 161.25 272.89 161.01C272.5 160.78 272.18 160.46 271.94 160.05C271.7 159.64 271.58 159.11 271.58 158.44C271.58 157.7 271.72 157.07 272.01 156.56C272.3 156.05 272.69 155.64 273.17 155.33C273.65 155.02 274.18 154.79 274.76 154.66C275.33 154.52 275.89 154.45 276.44 154.45C277.37 154.45 278.19 154.61 278.91 154.93C279.63 155.26 280.19 155.71 280.61 156.28C281.02 156.85 281.23 157.52 281.23 158.28L278.08 158.28C278.08 157.87 277.9 157.52 277.53 157.24C277.16 156.97 276.73 156.83 276.24 156.83C275.89 156.83 275.55 156.91 275.2 157.08C274.86 157.24 274.68 157.51 274.68 157.89C274.68 158.13 274.79 158.34 275.01 158.52C275.23 158.69 275.66 158.87 276.3 159.05C276.53 159.1 276.81 159.17 277.14 159.25C277.46 159.34 277.78 159.42 278.1 159.49C278.42 159.57 278.68 159.64 278.89 159.71C279.78 159.97 280.44 160.37 280.84 160.91C281.25 161.45 281.45 162.12 281.45 162.94C281.45 164.18 281.03 165.15 280.18 165.84C279.33 166.53 278.15 166.87 276.63 166.87" fill="#FFFFFF" stroke="#FFFFFF" stroke-width="0.6" stroke-linejoin="round"/>
<path d="M288.76 166.87C287.18 166.87 285.93 166.5 285.02 165.77C284.1 165.03 283.65 164.02 283.65 162.73L286.61 162.73C286.72 163.33 286.96 163.76 287.34 164.04C287.71 164.31 288.17 164.45 288.72 164.45C289.21 164.45 289.61 164.35 289.92 164.16C290.24 163.97 290.4 163.69 290.4 163.33C290.4 163.06 290.28 162.85 290.04 162.71C289.8 162.57 289.34 162.42 288.68 162.26C288.21 162.15 287.8 162.05 287.45 161.96C287.1 161.87 286.72 161.75 286.32 161.61C285.85 161.45 285.42 161.25 285.03 161.01C284.63 160.78 284.32 160.46 284.07 160.05C283.83 159.64 283.71 159.11 283.71 158.44C283.71 157.7 283.86 157.07 284.15 156.56C284.44 156.05 284.82 155.64 285.31 155.33C285.79 155.02 286.32 154.79 286.89 154.66C287.46 154.52 288.03 154.45 288.58 154.45C289.5 154.45 290.32 154.61 291.04 154.93C291.76 155.26 292.33 155.71 292.74 156.28C293.16 156.85 293.36 157.52 293.36 158.28L290.21 158.28C290.21 157.87 290.03 157.52 289.67 157.24C289.3 156.97 288.87 156.83 288.37 156.83C288.03 156.83 287.68 156.91 287.34 157.08C286.99 157.24 286.82 157.51 286.82 157.89C286.82 158.13 286.93 158.34 287.15 158.52C287.37 158.69 287.8 158.87 288.43 159.05C288.67 159.1 288.95 159.17 289.27 159.25C289.6 159.34 289.92 159.42 290.23 159.49C290.55 159.57 290.81 159.64 291.02 159.71C291.92 159.97 292.57 160.37 292.98 160.91C293.39 161.45 293.59 162.12 293.59 162.94C293.59 164.18 293.17 165.15 292.32 165.84C291.47 166.53 290.28 166.87 288.76 166.87" fill="#FFFFFF" stroke="#FFFFFF" stroke-width="0.6" stroke-linejoin="round"/>
<path d="M301.83 163.97C302.6 163.97 303.24 163.67 303.73 163.06C304.22 162.46 304.46 161.67 304.46 160.7C304.46 159.71 304.22 158.9 303.73 158.28C303.24 157.66 302.6 157.35 301.83 157.35C301.06 157.35 300.43 157.66 299.94 158.28C299.45 158.9 299.2 159.71 299.2 160.7C299.2 161.67 299.45 162.46 299.94 163.06C300.43 163.67 301.06 163.97 301.83 163.97M301.83 166.87C300.66 166.87 299.62 166.61 298.7 166.09C297.79 165.56 297.08 164.83 296.56 163.9C296.04 162.97 295.78 161.9 295.78 160.7C295.78 159.47 296.04 158.39 296.56 157.45C297.08 156.51 297.79 155.78 298.7 155.25C299.62 154.71 300.66 154.45 301.83 154.45C303.02 154.45 304.06 154.71 304.97 155.25C305.87 155.78 306.58 156.51 307.1 157.45C307.62 158.39 307.88 159.47 307.88 160.7C307.88 161.9 307.62 162.97 307.1 163.9C306.58 164.83 305.87 165.56 304.97 166.09C304.06 166.61 303.02 166.87 301.83 166.87" fill="#FFFFFF" stroke="#FFFFFF" stroke-width="0.6" stroke-linejoin="round"/>
<path d="M316.04 166.87C314.89 166.87 313.89 166.61 313.04 166.09C312.18 165.56 311.52 164.83 311.05 163.9C310.58 162.97 310.34 161.9 310.34 160.7C310.34 159.49 310.58 158.41 311.05 157.47C311.52 156.53 312.19 155.79 313.06 155.26C313.93 154.72 314.97 154.45 316.18 154.45C317.2 154.45 318.09 154.64 318.84 155.03C319.6 155.42 320.18 155.97 320.6 156.68C321.03 157.4 321.24 158.26 321.24 159.25L318.03 159.25C318.03 158.69 317.85 158.23 317.51 157.88C317.16 157.52 316.71 157.35 316.14 157.35C315.42 157.35 314.85 157.65 314.41 158.25C313.98 158.85 313.76 159.66 313.76 160.68C313.76 161.69 313.97 162.49 314.4 163.08C314.83 163.68 315.41 163.97 316.14 163.97C316.72 163.97 317.21 163.8 317.6 163.45C318 163.09 318.19 162.66 318.19 162.15L321.4 162.15C321.4 162.69 321.28 163.24 321.05 163.8C320.81 164.36 320.47 164.87 320.01 165.33C319.56 165.79 319 166.17 318.33 166.45C317.66 166.73 316.89 166.87 316.04 166.87" fill="#FFFFFF" stroke="#FFFFFF" stroke-width="0.6" stroke-linejoin="round"/>
<path d="M323.91 154.76H327.26V166.56H323.91ZM325.58 153.47C325.05 153.47 324.59 153.32 324.23 153C323.86 152.68 323.68 152.27 323.68 151.76C323.68 151.26 323.86 150.85 324.23 150.53C324.59 150.22 325.05 150.06 325.58 150.06C326.11 150.06 326.55 150.22 326.92 150.53C327.29 150.85 327.47 151.26 327.47 151.76C327.47 152.27 327.29 152.68 326.92 153C326.55 153.32 326.11 153.47 325.58 153.47" fill="#FFFFFF" stroke="#FFFFFF" stroke-width="0.6" stroke-linejoin="round"/>
<path d="M336.06 163.93C336.84 163.93 337.45 163.63 337.91 163.02C338.36 162.41 338.59 161.59 338.59 160.56C338.59 159.52 338.36 158.7 337.91 158.1C337.45 157.5 336.84 157.2 336.06 157.2C335.28 157.2 334.65 157.5 334.2 158.1C333.74 158.7 333.52 159.52 333.52 160.56C333.52 161.59 333.74 162.41 334.2 163.02C334.65 163.63 335.28 163.93 336.06 163.93M335.46 166.87C334.41 166.87 333.48 166.6 332.68 166.07C331.87 165.53 331.24 164.78 330.78 163.83C330.33 162.88 330.1 161.79 330.1 160.56C330.1 159.36 330.32 158.3 330.76 157.38C331.2 156.46 331.81 155.74 332.58 155.22C333.36 154.71 334.25 154.45 335.26 154.45C336.03 154.45 336.71 154.6 337.32 154.89C337.92 155.19 338.4 155.6 338.78 156.12L338.96 154.76L341.74 154.76L341.74 166.56L338.96 166.56L338.78 165.01C338.42 165.59 337.95 166.05 337.37 166.38C336.79 166.71 336.15 166.87 335.46 166.87" fill="#FFFFFF" stroke="#FFFFFF" stroke-width="0.6" stroke-linejoin="round"/>
<path d="M347.99 172.59L347.99 170.39L349.42 170.39C349.57 170.39 349.7 170.35 349.8 170.27C349.91 170.19 349.96 170.08 349.96 169.94C349.96 169.66 349.78 169.52 349.42 169.52L349.32 169.52C349 169.52 348.73 169.43 348.5 169.23C348.27 169.04 348.16 168.79 348.16 168.49C348.16 168.25 348.23 167.97 348.38 167.64L348.92 166.56L351.35 166.56L350.75 167.85C351.24 167.94 351.67 168.17 352.03 168.52C352.39 168.87 352.57 169.38 352.57 170.04C352.57 170.88 352.31 171.52 351.78 171.95C351.26 172.37 350.57 172.59 349.71 172.59L347.99 172.59M350.21 166.87C349.06 166.87 348.06 166.61 347.2 166.09C346.35 165.56 345.69 164.83 345.22 163.9C344.75 162.97 344.51 161.9 344.51 160.7C344.51 159.49 344.75 158.41 345.22 157.47C345.69 156.53 346.36 155.79 347.23 155.26C348.1 154.72 349.14 154.45 350.35 154.45C351.37 154.45 352.26 154.64 353.01 155.03C353.77 155.42 354.35 155.97 354.77 156.68C355.19 157.4 355.41 158.26 355.41 159.25L352.2 159.25C352.2 158.69 352.02 158.23 351.68 157.88C351.33 157.52 350.88 157.35 350.31 157.35C349.59 157.35 349.02 157.65 348.58 158.25C348.15 158.85 347.93 159.66 347.93 160.68C347.93 161.69 348.14 162.49 348.57 163.08C349 163.68 349.58 163.97 350.31 163.97C350.89 163.97 351.38 163.8 351.77 163.45C352.16 163.09 352.36 162.66 352.36 162.15L355.57 162.15C355.57 162.69 355.45 163.24 355.22 163.8C354.98 164.36 354.64 164.87 354.18 165.33C353.73 165.79 353.16 166.17 352.5 166.45C351.83 166.73 351.06 166.87 350.21 166.87" fill="#FFFFFF" stroke="#FFFFFF" stroke-width="0.6" stroke-linejoin="round"/>
<path d="M363.56 163.93C364.34 163.93 364.95 163.63 365.41 163.02C365.86 162.41 366.09 161.59 366.09 160.56C366.09 159.52 365.86 158.7 365.41 158.1C364.95 157.5 364.34 157.2 363.56 157.2C362.78 157.2 362.16 157.5 361.7 158.1C361.25 158.7 361.02 159.52 361.02 160.56C361.02 161.59 361.25 162.41 361.7 163.02C362.16 163.63 362.78 163.93 363.56 163.93M364.99 153.62C364.55 153.62 364.19 153.52 363.91 153.33C363.62 153.14 363.38 152.94 363.19 152.75C363 152.56 362.8 152.46 362.59 152.46C362.49 152.46 362.41 152.49 362.33 152.56C362.26 152.63 362.22 152.79 362.22 153.04L362.22 153.52L360.04 153.52L360.04 152.69C360.04 151.8 360.26 151.18 360.69 150.82C361.11 150.46 361.64 150.29 362.28 150.29C362.75 150.29 363.12 150.38 363.39 150.56C363.66 150.75 363.89 150.94 364.07 151.12C364.26 151.31 364.45 151.4 364.64 151.4C364.75 151.4 364.84 151.37 364.91 151.29C364.98 151.21 365.01 151.07 365.01 150.86L365.01 150.45L367.21 150.45L367.21 151.22C367.21 152.05 366.99 152.65 366.57 153.04C366.14 153.43 365.61 153.62 364.99 153.62M362.96 166.87C361.91 166.87 360.99 166.6 360.18 166.07C359.37 165.53 358.74 164.78 358.28 163.83C357.83 162.88 357.6 161.79 357.6 160.56C357.6 159.36 357.82 158.3 358.26 157.38C358.7 156.46 359.31 155.74 360.09 155.22C360.86 154.71 361.75 154.45 362.76 154.45C363.53 154.45 364.22 154.6 364.82 154.89C365.42 155.19 365.9 155.6 366.28 156.12L366.46 154.76L369.24 154.76L369.24 166.56L366.46 166.56L366.28 165.01C365.92 165.59 365.45 166.05 364.87 166.38C364.29 166.71 363.65 166.87 362.96 166.87" fill="#FFFFFF" stroke="#FFFFFF" stroke-width="0.6" stroke-linejoin="round"/>
<path d="M378.04 163.97C378.81 163.97 379.44 163.67 379.93 163.06C380.42 162.46 380.67 161.67 380.67 160.7C380.67 159.71 380.42 158.9 379.93 158.28C379.44 157.66 378.81 157.35 378.04 157.35C377.27 157.35 376.63 157.66 376.14 158.28C375.65 158.9 375.41 159.71 375.41 160.7C375.41 161.67 375.65 162.46 376.14 163.06C376.63 163.67 377.27 163.97 378.04 163.97M378.04 166.87C376.87 166.87 375.82 166.61 374.91 166.09C374 165.56 373.29 164.83 372.77 163.9C372.25 162.97 371.99 161.9 371.99 160.7C371.99 159.47 372.25 158.39 372.77 157.45C373.29 156.51 374 155.78 374.91 155.25C375.82 154.71 376.87 154.45 378.04 154.45C379.23 154.45 380.27 154.71 381.18 155.25C382.08 155.78 382.79 156.51 383.31 157.45C383.83 158.39 384.09 159.47 384.09 160.7C384.09 161.9 383.83 162.97 383.31 163.9C382.79 164.83 382.08 165.56 381.18 166.09C380.27 166.61 379.23 166.87 378.04 166.87" fill="#FFFFFF" stroke="#FFFFFF" stroke-width="0.6" stroke-linejoin="round"/>
<path d="M398.11 163.93C398.88 163.93 399.49 163.63 399.95 163.02C400.4 162.41 400.63 161.59 400.63 160.56C400.63 159.52 400.4 158.7 399.95 158.1C399.49 157.5 398.88 157.2 398.11 157.2C397.29 157.2 396.65 157.5 396.17 158.1C395.69 158.7 395.46 159.52 395.46 160.56C395.46 161.59 395.69 162.41 396.17 163.02C396.65 163.63 397.29 163.93 398.11 163.93M397.61 166.87C396.52 166.87 395.55 166.61 394.72 166.08C393.88 165.54 393.23 164.81 392.75 163.86C392.28 162.91 392.04 161.83 392.04 160.6C392.04 159.4 392.26 158.33 392.7 157.41C393.14 156.48 393.76 155.76 394.54 155.23C395.33 154.71 396.23 154.45 397.24 154.45C397.94 154.45 398.59 154.57 399.17 154.82C399.76 155.07 400.25 155.44 400.63 155.94L400.63 151.03L403.99 151.03L403.99 166.56L401.15 166.56L400.9 164.95C400.18 166.23 399.09 166.87 397.61 166.87" fill="#FFFFFF" stroke="#FFFFFF" stroke-width="0.6" stroke-linejoin="round"/>
<path d="M412.64 157.02C411.97 157.02 411.41 157.23 410.97 157.67C410.52 158.1 410.25 158.69 410.14 159.42L414.94 159.42C414.89 158.55 414.63 157.93 414.18 157.56C413.72 157.2 413.21 157.02 412.64 157.02M412.68 166.87C411.48 166.87 410.44 166.62 409.56 166.12C408.67 165.61 407.99 164.9 407.5 163.96C407.01 163.03 406.76 161.93 406.76 160.66C406.76 159.39 407 158.29 407.49 157.37C407.97 156.44 408.65 155.73 409.53 155.21C410.4 154.7 411.43 154.45 412.62 154.45C413.85 154.45 414.9 154.72 415.76 155.28C416.62 155.83 417.27 156.63 417.71 157.68C418.14 158.73 418.32 159.99 418.26 161.47L410.14 161.47C410.25 162.35 410.54 163.04 411.01 163.54C411.48 164.04 412.08 164.28 412.83 164.28C413.44 164.28 413.93 164.14 414.32 163.84C414.71 163.54 414.95 163.18 415.05 162.75L418.17 162.75C418.03 163.61 417.71 164.34 417.21 164.96C416.71 165.57 416.07 166.05 415.29 166.38C414.52 166.71 413.65 166.87 412.68 166.87" fill="#FFFFFF" stroke="#FFFFFF" stroke-width="0.6" stroke-linejoin="round"/>
<path d="M426.99 166.56L426.99 151.03L430.64 151.03L430.64 163.35L437.45 163.35L437.45 166.56L426.99 166.56" fill="#FFFFFF" stroke="#FFFFFF" stroke-width="0.6" stroke-linejoin="round"/>
<path d="M445.3 157.02C444.62 157.02 444.07 157.23 443.62 157.67C443.18 158.1 442.91 158.69 442.8 159.42L447.6 159.42C447.54 158.55 447.29 157.93 446.83 157.56C446.38 157.2 445.87 157.02 445.3 157.02M445.34 166.87C444.14 166.87 443.1 166.62 442.22 166.12C441.33 165.61 440.65 164.9 440.16 163.96C439.66 163.03 439.42 161.93 439.42 160.66C439.42 159.39 439.66 158.29 440.14 157.37C440.63 156.44 441.31 155.73 442.18 155.21C443.06 154.7 444.09 154.45 445.28 154.45C446.51 154.45 447.55 154.72 448.42 155.28C449.28 155.83 449.93 156.63 450.36 157.68C450.8 158.73 450.98 159.99 450.91 161.47L442.8 161.47C442.91 162.35 443.2 163.04 443.67 163.54C444.13 164.04 444.74 164.28 445.49 164.28C446.1 164.28 446.59 164.14 446.98 163.84C447.37 163.54 447.61 163.18 447.7 162.75L450.83 162.75C450.69 163.61 450.37 164.34 449.87 164.96C449.36 165.57 448.73 166.05 447.95 166.38C447.18 166.71 446.31 166.87 445.34 166.87" fill="#FFFFFF" stroke="#FFFFFF" stroke-width="0.6" stroke-linejoin="round"/>
<path d="M458.22 166.87C457.6 166.87 457.09 166.65 456.69 166.21C456.29 165.77 455.89 164.98 455.49 163.85L452.22 154.76L455.68 154.76L458.22 162.59L460.71 154.76L464.08 154.76L460.92 163.81C460.52 164.96 460.12 165.75 459.72 166.2C459.33 166.65 458.83 166.87 458.22 166.87" fill="#FFFFFF" stroke="#FFFFFF" stroke-width="0.6" stroke-linejoin="round"/>
<path d="M471.44 163.93C472.21 163.93 472.82 163.63 473.28 163.02C473.73 162.41 473.96 161.59 473.96 160.56C473.96 159.52 473.73 158.7 473.28 158.1C472.82 157.5 472.21 157.2 471.44 157.2C470.65 157.2 470.03 157.5 469.57 158.1C469.12 158.7 468.89 159.52 468.89 160.56C468.89 161.59 469.12 162.41 469.57 163.02C470.03 163.63 470.65 163.93 471.44 163.93M470.84 166.87C469.79 166.87 468.86 166.6 468.05 166.07C467.24 165.53 466.61 164.78 466.16 163.83C465.7 162.88 465.47 161.79 465.47 160.56C465.47 159.36 465.69 158.3 466.13 157.38C466.58 156.46 467.18 155.74 467.96 155.22C468.73 154.71 469.62 154.45 470.63 154.45C471.4 154.45 472.09 154.6 472.69 154.89C473.29 155.19 473.78 155.6 474.15 156.12L474.34 154.76L477.11 154.76L477.11 166.56L474.34 166.56L474.15 165.01C473.79 165.59 473.32 166.05 472.74 166.38C472.16 166.71 471.53 166.87 470.84 166.87" fill="#FFFFFF" stroke="#FFFFFF" stroke-width="0.6" stroke-linejoin="round"/>
<path d="M480.26 166.56L480.26 159.63C480.26 158.56 480.48 157.64 480.91 156.87C481.35 156.1 481.96 155.5 482.76 155.08C483.56 154.66 484.51 154.45 485.6 154.45C486.69 154.45 487.64 154.66 488.44 155.08C489.24 155.5 489.86 156.1 490.29 156.87C490.73 157.64 490.94 158.56 490.94 159.63L490.94 166.56L487.59 166.56L487.59 159.67C487.59 158.92 487.41 158.35 487.04 157.95C486.67 157.55 486.19 157.35 485.6 157.35C485.02 157.35 484.54 157.55 484.17 157.95C483.8 158.35 483.61 158.92 483.61 159.67L483.61 166.56L480.26 166.56" fill="#FFFFFF" stroke="#FFFFFF" stroke-width="0.6" stroke-linejoin="round"/>
<path d="M498.54 166.56C497.58 166.56 496.8 166.27 496.21 165.68C495.63 165.1 495.33 164.32 495.33 163.35L495.33 157.45L493.39 157.45L493.39 154.76L495.33 154.76L495.33 151.65L498.69 151.65L498.69 154.76L501.09 154.76L501.09 157.45L498.69 157.45L498.69 162.77C498.69 163.04 498.77 163.25 498.94 163.41C499.1 163.58 499.31 163.66 499.56 163.66L501.44 163.66L501.44 166.56L498.54 166.56" fill="#FFFFFF" stroke="#FFFFFF" stroke-width="0.6" stroke-linejoin="round"/>
<path d="M509.35 163.93C510.13 163.93 510.74 163.63 511.2 163.02C511.65 162.41 511.88 161.59 511.88 160.56C511.88 159.52 511.65 158.7 511.2 158.1C510.74 157.5 510.13 157.2 509.35 157.2C508.57 157.2 507.95 157.5 507.49 158.1C507.04 158.7 506.81 159.52 506.81 160.56C506.81 161.59 507.04 162.41 507.49 163.02C507.95 163.63 508.57 163.93 509.35 163.93M508.75 166.87C507.7 166.87 506.78 166.6 505.97 166.07C505.16 165.53 504.53 164.78 504.07 163.83C503.62 162.88 503.39 161.79 503.39 160.56C503.39 159.36 503.61 158.3 504.05 157.38C504.49 156.46 505.1 155.74 505.88 155.22C506.65 154.71 507.54 154.45 508.55 154.45C509.32 154.45 510.01 154.6 510.61 154.89C511.21 155.19 511.69 155.6 512.07 156.12L512.25 154.76L515.03 154.76L515.03 166.56L512.25 166.56L512.07 165.01C511.71 165.59 511.24 166.05 510.66 166.38C510.08 166.71 509.44 166.87 508.75 166.87" fill="#FFFFFF" stroke="#FFFFFF" stroke-width="0.6" stroke-linejoin="round"/>
<path d="M518.18 166.56L518.18 159.52C518.18 158.5 518.39 157.6 518.81 156.83C519.23 156.06 519.81 155.45 520.56 155.01C521.3 154.57 522.16 154.34 523.13 154.34C524 154.34 524.8 154.52 525.53 154.88C526.26 155.24 526.85 155.74 527.31 156.37C527.78 155.74 528.38 155.24 529.1 154.88C529.83 154.52 530.62 154.34 531.47 154.34C532.44 154.34 533.29 154.57 534.02 155.01C534.75 155.45 535.32 156.06 535.74 156.83C536.15 157.6 536.36 158.5 536.36 159.52L536.36 166.56L532.98 166.56L532.98 159.52C532.98 158.89 532.8 158.37 532.44 157.97C532.09 157.57 531.6 157.37 531 157.37C530.4 157.37 529.91 157.57 529.54 157.97C529.16 158.37 528.97 158.89 528.97 159.52L528.97 166.56L525.61 166.56L525.61 159.52C525.61 158.89 525.42 158.37 525.04 157.97C524.66 157.57 524.17 157.37 523.56 157.37C522.97 157.37 522.48 157.57 522.1 157.97C521.72 158.37 521.53 158.89 521.53 159.52L521.53 166.56L518.18 166.56" fill="#FFFFFF" stroke="#FFFFFF" stroke-width="0.6" stroke-linejoin="round"/>
<path d="M544.99 157.02C544.32 157.02 543.76 157.23 543.32 157.67C542.87 158.1 542.6 158.69 542.49 159.42L547.29 159.42C547.24 158.55 546.98 157.93 546.53 157.56C546.07 157.2 545.56 157.02 544.99 157.02M545.04 166.87C543.83 166.87 542.79 166.62 541.91 166.12C541.02 165.61 540.34 164.9 539.85 163.96C539.36 163.03 539.11 161.93 539.11 160.66C539.11 159.39 539.35 158.29 539.84 157.37C540.32 156.44 541 155.73 541.88 155.21C542.75 154.7 543.79 154.45 544.97 154.45C546.2 154.45 547.25 154.72 548.11 155.28C548.97 155.83 549.62 156.63 550.06 157.68C550.49 158.73 550.68 159.99 550.61 161.47L542.49 161.47C542.6 162.35 542.89 163.04 543.36 163.54C543.83 164.04 544.43 164.28 545.18 164.28C545.79 164.28 546.29 164.14 546.67 163.84C547.06 163.54 547.3 163.18 547.4 162.75L550.52 162.75C550.39 163.61 550.06 164.34 549.56 164.96C549.06 165.57 548.42 166.05 547.65 166.38C546.87 166.71 546 166.87 545.04 166.87" fill="#FFFFFF" stroke="#FFFFFF" stroke-width="0.6" stroke-linejoin="round"/>
<path d="M553.32 166.56L553.32 159.63C553.32 158.56 553.54 157.64 553.97 156.87C554.41 156.1 555.02 155.5 555.82 155.08C556.62 154.66 557.57 154.45 558.66 154.45C559.75 154.45 560.7 154.66 561.5 155.08C562.3 155.5 562.92 156.1 563.35 156.87C563.79 157.64 564 158.56 564 159.63L564 166.56L560.65 166.56L560.65 159.67C560.65 158.92 560.47 158.35 560.1 157.95C559.73 157.55 559.25 157.35 558.66 157.35C558.08 157.35 557.61 157.55 557.23 157.95C556.86 158.35 556.67 158.92 556.67 159.67L556.67 166.56L553.32 166.56" fill="#FFFFFF" stroke="#FFFFFF" stroke-width="0.6" stroke-linejoin="round"/>
<path d="M571.6 166.56C570.64 166.56 569.86 166.27 569.27 165.68C568.69 165.1 568.39 164.32 568.39 163.35L568.39 157.45L566.45 157.45L566.45 154.76L568.39 154.76L568.39 151.65L571.75 151.65L571.75 154.76L574.15 154.76L574.15 157.45L571.75 157.45L571.75 162.77C571.75 163.04 571.83 163.25 572 163.41C572.16 163.58 572.37 163.66 572.62 163.66L574.5 163.66L574.5 166.56L571.6 166.56" fill="#FFFFFF" stroke="#FFFFFF" stroke-width="0.6" stroke-linejoin="round"/>
<path d="M582.5 163.97C583.27 163.97 583.9 163.67 584.39 163.06C584.88 162.46 585.13 161.67 585.13 160.7C585.13 159.71 584.88 158.9 584.39 158.28C583.9 157.66 583.27 157.35 582.5 157.35C581.72 157.35 581.09 157.66 580.6 158.28C580.11 158.9 579.87 159.71 579.87 160.7C579.87 161.67 580.11 162.46 580.6 163.06C581.09 163.67 581.72 163.97 582.5 163.97M582.5 166.87C581.32 166.87 580.28 166.61 579.37 166.09C578.46 165.56 577.74 164.83 577.23 163.9C576.71 162.97 576.45 161.9 576.45 160.7C576.45 159.47 576.71 158.39 577.23 157.45C577.74 156.51 578.46 155.78 579.37 155.25C580.28 154.71 581.32 154.45 582.5 154.45C583.68 154.45 584.73 154.71 585.63 155.25C586.54 155.78 587.25 156.51 587.77 157.45C588.29 158.39 588.54 159.47 588.54 160.7C588.54 161.9 588.29 162.97 587.77 163.9C587.25 164.83 586.54 165.56 585.63 166.09C584.73 166.61 583.68 166.87 582.5 166.87" fill="#FFFFFF" stroke="#FFFFFF" stroke-width="0.6" stroke-linejoin="round"/>
<path d="M292.59 191.41L292.59 175.88L302.92 175.88L302.92 179.01L296.19 179.01L296.19 182.36L302.53 182.36L302.53 185.41L296.19 185.41L296.19 191.41L292.59 191.41" fill="#FFFFFF" stroke="#FFFFFF" stroke-width="0.6" stroke-linejoin="round"/>
<path d="M309.13 191.41C308.17 191.41 307.39 191.12 306.8 190.53C306.22 189.95 305.92 189.17 305.92 188.2L305.92 175.88L309.28 175.88L309.28 187.62C309.28 187.89 309.36 188.1 309.53 188.27C309.69 188.43 309.9 188.51 310.15 188.51L310.79 188.51L310.79 191.41L309.13 191.41" fill="#FFFFFF" stroke="#FFFFFF" stroke-width="0.6" stroke-linejoin="round"/>
<path d="M319.16 188.83C319.93 188.83 320.56 188.52 321.05 187.91C321.54 187.31 321.79 186.52 321.79 185.55C321.79 184.56 321.54 183.75 321.05 183.13C320.56 182.51 319.93 182.2 319.16 182.2C318.38 182.2 317.75 182.51 317.26 183.13C316.77 183.75 316.53 184.56 316.53 185.55C316.53 186.52 316.77 187.31 317.26 187.91C317.75 188.52 318.38 188.83 319.16 188.83M319.16 191.72C317.98 191.72 316.94 191.46 316.03 190.94C315.12 190.41 314.4 189.68 313.88 188.75C313.37 187.82 313.11 186.75 313.11 185.55C313.11 184.32 313.37 183.24 313.88 182.3C314.4 181.36 315.12 180.63 316.03 180.1C316.94 179.56 317.98 179.3 319.16 179.3C320.34 179.3 321.39 179.56 322.29 180.1C323.2 180.63 323.91 181.36 324.43 182.3C324.94 183.24 325.2 184.32 325.2 185.55C325.2 186.75 324.94 187.82 324.43 188.75C323.91 189.68 323.2 190.41 322.29 190.94C321.39 191.46 320.34 191.72 319.16 191.72" fill="#FFFFFF" stroke="#FFFFFF" stroke-width="0.6" stroke-linejoin="round"/>
<path d="M327.94 191.41L327.94 184.58C327.94 182.88 328.4 181.58 329.31 180.67C330.23 179.75 331.55 179.3 333.26 179.3C333.44 179.3 333.72 179.31 334.11 179.33C334.49 179.35 334.88 179.4 335.27 179.49L335.27 182.36C335.01 182.32 334.76 182.28 334.52 182.25C334.29 182.22 334.02 182.2 333.73 182.2C333.31 182.2 332.91 182.26 332.53 182.38C332.16 182.51 331.86 182.74 331.63 183.09C331.4 183.43 331.29 183.94 331.29 184.6L331.29 191.41L327.94 191.41" fill="#FFFFFF" stroke="#FFFFFF" stroke-width="0.6" stroke-linejoin="round"/>
<path d="M342.8 181.87C342.13 181.87 341.57 182.08 341.13 182.52C340.68 182.95 340.41 183.54 340.3 184.27L345.1 184.27C345.05 183.4 344.79 182.78 344.34 182.41C343.88 182.05 343.37 181.87 342.8 181.87M342.85 191.72C341.64 191.72 340.6 191.47 339.72 190.97C338.83 190.46 338.15 189.75 337.66 188.81C337.17 187.88 336.92 186.78 336.92 185.51C336.92 184.24 337.16 183.14 337.65 182.22C338.13 181.29 338.81 180.58 339.69 180.06C340.56 179.55 341.6 179.3 342.78 179.3C344.01 179.3 345.06 179.57 345.92 180.13C346.78 180.68 347.43 181.48 347.87 182.53C348.3 183.58 348.49 184.84 348.42 186.32L340.3 186.32C340.41 187.2 340.7 187.89 341.17 188.39C341.64 188.89 342.24 189.13 342.99 189.13C343.6 189.13 344.1 188.99 344.48 188.69C344.87 188.39 345.11 188.03 345.21 187.6L348.33 187.6C348.2 188.46 347.87 189.19 347.37 189.81C346.87 190.42 346.23 190.9 345.46 191.23C344.68 191.56 343.81 191.72 342.85 191.72" fill="#FFFFFF" stroke="#FFFFFF" stroke-width="0.6" stroke-linejoin="round"/>
<path d="M355.79 191.72C354.2 191.72 352.95 191.35 352.04 190.62C351.13 189.88 350.67 188.87 350.67 187.58L353.63 187.58C353.74 188.18 353.99 188.61 354.36 188.89C354.73 189.16 355.19 189.3 355.75 189.3C356.23 189.3 356.63 189.2 356.95 189.01C357.27 188.82 357.42 188.54 357.42 188.18C357.42 187.91 357.3 187.7 357.06 187.56C356.82 187.42 356.37 187.27 355.71 187.11C355.24 187 354.83 186.9 354.47 186.81C354.12 186.72 353.74 186.6 353.35 186.46C352.88 186.3 352.44 186.1 352.05 185.86C351.66 185.63 351.34 185.31 351.1 184.9C350.86 184.49 350.74 183.96 350.74 183.3C350.74 182.55 350.88 181.92 351.17 181.41C351.46 180.9 351.85 180.49 352.33 180.18C352.81 179.87 353.34 179.64 353.91 179.51C354.49 179.37 355.05 179.3 355.6 179.3C356.53 179.3 357.35 179.46 358.07 179.79C358.78 180.11 359.35 180.56 359.76 181.13C360.18 181.7 360.39 182.37 360.39 183.13L357.24 183.13C357.24 182.72 357.05 182.37 356.69 182.09C356.32 181.82 355.89 181.68 355.4 181.68C355.05 181.68 354.7 181.76 354.36 181.93C354.01 182.09 353.84 182.36 353.84 182.74C353.84 182.98 353.95 183.2 354.17 183.37C354.39 183.54 354.82 183.72 355.46 183.9C355.69 183.95 355.97 184.02 356.3 184.1C356.62 184.19 356.94 184.27 357.26 184.34C357.58 184.42 357.84 184.49 358.05 184.56C358.94 184.82 359.6 185.22 360 185.76C360.41 186.3 360.61 186.97 360.61 187.79C360.61 189.03 360.19 190 359.34 190.69C358.49 191.38 357.31 191.72 355.79 191.72" fill="#FFFFFF" stroke="#FFFFFF" stroke-width="0.6" stroke-linejoin="round"/>
<path d="M367.88 191.41C366.92 191.41 366.14 191.12 365.55 190.53C364.97 189.95 364.67 189.17 364.67 188.2L364.67 182.3L362.73 182.3L362.73 179.61L364.67 179.61L364.67 176.5L368.03 176.5L368.03 179.61L370.43 179.61L370.43 182.3L368.03 182.3L368.03 187.62C368.03 187.89 368.11 188.1 368.28 188.27C368.44 188.43 368.65 188.51 368.9 188.51L370.78 188.51L370.78 191.41L367.88 191.41" fill="#FFFFFF" stroke="#FFFFFF" stroke-width="0.6" stroke-linejoin="round"/>
<path d="M378.69 188.78C379.47 188.78 380.08 188.48 380.54 187.87C380.99 187.27 381.22 186.44 381.22 185.41C381.22 184.37 380.99 183.55 380.54 182.95C380.08 182.35 379.47 182.05 378.69 182.05C377.91 182.05 377.29 182.35 376.83 182.95C376.37 183.55 376.15 184.37 376.15 185.41C376.15 186.44 376.37 187.27 376.83 187.87C377.29 188.48 377.91 188.78 378.69 188.78M378.09 191.72C377.04 191.72 376.11 191.45 375.31 190.92C374.5 190.38 373.87 189.63 373.41 188.68C372.96 187.73 372.73 186.64 372.73 185.41C372.73 184.21 372.95 183.15 373.39 182.23C373.83 181.31 374.44 180.59 375.21 180.08C375.99 179.56 376.88 179.3 377.89 179.3C378.66 179.3 379.34 179.45 379.95 179.74C380.55 180.04 381.03 180.45 381.41 180.98L381.59 179.61L384.37 179.61L384.37 191.41L381.59 191.41L381.41 189.86C381.05 190.44 380.58 190.9 380 191.23C379.42 191.56 378.78 191.72 378.09 191.72" fill="#FFFFFF" stroke="#FFFFFF" stroke-width="0.6" stroke-linejoin="round"/>
<path d="M391.1 191.41C390.13 191.41 389.35 191.12 388.77 190.53C388.18 189.95 387.89 189.17 387.89 188.2L387.89 175.88L391.24 175.88L391.24 187.62C391.24 187.89 391.33 188.1 391.49 188.27C391.66 188.43 391.86 188.51 392.11 188.51L392.75 188.51L392.75 191.41L391.1 191.41" fill="#FFFFFF" stroke="#FFFFFF" stroke-width="0.6" stroke-linejoin="round"/>
<path d="M407.37 188.78C408.15 188.78 408.76 188.48 409.22 187.87C409.67 187.27 409.9 186.44 409.9 185.41C409.9 184.37 409.67 183.55 409.22 182.95C408.76 182.35 408.15 182.05 407.37 182.05C406.56 182.05 405.91 182.35 405.44 182.95C404.96 183.55 404.72 184.37 404.72 185.41C404.72 186.44 404.96 187.27 405.44 187.87C405.91 188.48 406.56 188.78 407.37 188.78M406.88 191.72C405.79 191.72 404.82 191.46 403.99 190.93C403.15 190.4 402.5 189.66 402.02 188.71C401.54 187.77 401.31 186.68 401.31 185.45C401.31 184.25 401.53 183.19 401.97 182.26C402.41 181.34 403.02 180.61 403.81 180.09C404.6 179.56 405.5 179.3 406.5 179.3C407.21 179.3 407.85 179.42 408.44 179.67C409.03 179.92 409.51 180.29 409.9 180.79L409.9 175.88L413.25 175.88L413.25 191.41L410.42 191.41L410.17 189.8C409.45 191.08 408.35 191.72 406.88 191.72" fill="#FFFFFF" stroke="#FFFFFF" stroke-width="0.6" stroke-linejoin="round"/>
<path d="M422.06 188.83C422.83 188.83 423.46 188.52 423.95 187.91C424.44 187.31 424.69 186.52 424.69 185.55C424.69 184.56 424.44 183.75 423.95 183.13C423.46 182.51 422.83 182.2 422.06 182.2C421.28 182.2 420.65 182.51 420.16 183.13C419.67 183.75 419.43 184.56 419.43 185.55C419.43 186.52 419.67 187.31 420.16 187.91C420.65 188.52 421.28 188.83 422.06 188.83M422.06 191.72C420.88 191.72 419.84 191.46 418.93 190.94C418.02 190.41 417.3 189.68 416.79 188.75C416.27 187.82 416.01 186.75 416.01 185.55C416.01 184.32 416.27 183.24 416.79 182.3C417.3 181.36 418.02 180.63 418.93 180.1C419.84 179.56 420.88 179.3 422.06 179.3C423.24 179.3 424.29 179.56 425.19 180.1C426.1 180.63 426.81 181.36 427.33 182.3C427.84 183.24 428.1 184.32 428.1 185.55C428.1 186.75 427.84 187.82 427.33 188.75C426.81 189.68 426.1 190.41 425.19 190.94C424.29 191.46 423.24 191.72 422.06 191.72" fill="#FFFFFF" stroke="#FFFFFF" stroke-width="0.6" stroke-linejoin="round"/>
<path d="M443.1 179.57L441.32 185.06L444.92 185.06L443.22 179.57C443.21 179.51 443.19 179.49 443.16 179.49C443.13 179.49 443.11 179.51 443.1 179.57M435.62 191.41L440.09 178.74C440.33 178.06 440.57 177.49 440.81 177.02C441.05 176.55 441.35 176.19 441.72 175.94C442.08 175.69 442.56 175.57 443.14 175.57C443.73 175.57 444.21 175.69 444.59 175.94C444.96 176.19 445.27 176.55 445.53 177.01C445.78 177.47 446.02 178.04 446.24 178.7L450.59 191.41L446.91 191.41L445.89 188.12L440.32 188.12L439.27 191.41L435.62 191.41" fill="#FFFFFF" stroke="#FFFFFF" stroke-width="0.6" stroke-linejoin="round"/>
<path d="M453 191.41L453 184.37C453 183.35 453.21 182.45 453.63 181.68C454.05 180.91 454.63 180.3 455.38 179.86C456.12 179.42 456.98 179.2 457.94 179.2C458.81 179.2 459.62 179.37 460.35 179.73C461.08 180.09 461.67 180.59 462.13 181.22C462.6 180.59 463.19 180.09 463.92 179.73C464.64 179.37 465.43 179.2 466.29 179.2C467.26 179.2 468.11 179.42 468.84 179.86C469.57 180.3 470.14 180.91 470.56 181.68C470.97 182.45 471.18 183.35 471.18 184.37L471.18 191.41L467.8 191.41L467.8 184.37C467.8 183.74 467.62 183.22 467.26 182.82C466.91 182.42 466.42 182.22 465.81 182.22C465.22 182.22 464.73 182.42 464.35 182.82C463.97 183.22 463.78 183.74 463.78 184.37L463.78 191.41L460.43 191.41L460.43 184.37C460.43 183.74 460.24 183.22 459.86 182.82C459.48 182.42 458.99 182.22 458.38 182.22C457.79 182.22 457.3 182.42 456.92 182.82C456.54 183.22 456.35 183.74 456.35 184.37L456.35 191.41L453 191.41" fill="#FFFFFF" stroke="#FFFFFF" stroke-width="0.6" stroke-linejoin="round"/>
<path d="M479.9 188.78C480.67 188.78 481.28 188.48 481.74 187.87C482.2 187.27 482.42 186.44 482.42 185.41C482.42 184.37 482.2 183.55 481.74 182.95C481.28 182.35 480.67 182.05 479.9 182.05C479.11 182.05 478.49 182.35 478.03 182.95C477.58 183.55 477.35 184.37 477.35 185.41C477.35 186.44 477.58 187.27 478.03 187.87C478.49 188.48 479.11 188.78 479.9 188.78M479.3 191.72C478.25 191.72 477.32 191.45 476.51 190.92C475.7 190.38 475.07 189.63 474.62 188.68C474.16 187.73 473.93 186.64 473.93 185.41C473.93 184.21 474.15 183.15 474.59 182.23C475.04 181.31 475.64 180.59 476.42 180.08C477.19 179.56 478.08 179.3 479.09 179.3C479.86 179.3 480.55 179.45 481.15 179.74C481.75 180.04 482.24 180.45 482.61 180.98L482.8 179.61L485.57 179.61L485.57 191.41L482.8 191.41L482.61 189.86C482.25 190.44 481.78 190.9 481.2 191.23C480.62 191.56 479.99 191.72 479.3 191.72" fill="#FFFFFF" stroke="#FFFFFF" stroke-width="0.6" stroke-linejoin="round"/>
<path d="M490.27 191.41C489.57 191.41 489.05 191.25 488.72 190.92C488.39 190.59 488.22 190.18 488.22 189.69C488.22 189.31 488.32 188.89 488.51 188.45C488.7 188.01 488.99 187.6 489.38 187.21L494 182.38L488.14 182.38L488.14 179.61L495.9 179.61C496.68 179.61 497.24 179.78 497.58 180.11C497.93 180.44 498.1 180.83 498.1 181.29C498.1 181.99 497.8 182.67 497.21 183.34L492.3 188.64L497.98 188.64L497.98 191.41L490.27 191.41" fill="#FFFFFF" stroke="#FFFFFF" stroke-width="0.6" stroke-linejoin="round"/>
<path d="M505.97 188.83C506.74 188.83 507.37 188.52 507.86 187.91C508.35 187.31 508.6 186.52 508.6 185.55C508.6 184.56 508.35 183.75 507.86 183.13C507.37 182.51 506.74 182.2 505.97 182.2C505.2 182.2 504.56 182.51 504.07 183.13C503.58 183.75 503.34 184.56 503.34 185.55C503.34 186.52 503.58 187.31 504.07 187.91C504.56 188.52 505.2 188.83 505.97 188.83M505.97 191.72C504.79 191.72 503.75 191.46 502.84 190.94C501.93 190.41 501.22 189.68 500.7 188.75C500.18 187.82 499.92 186.75 499.92 185.55C499.92 184.32 500.18 183.24 500.7 182.3C501.22 181.36 501.93 180.63 502.84 180.1C503.75 179.56 504.79 179.3 505.97 179.3C507.16 179.3 508.2 179.56 509.11 180.1C510.01 180.63 510.72 181.36 511.24 182.3C511.76 183.24 512.02 184.32 512.02 185.55C512.02 186.75 511.76 187.82 511.24 188.75C510.72 189.68 510.01 190.41 509.11 190.94C508.2 191.46 507.16 191.72 505.97 191.72" fill="#FFFFFF" stroke="#FFFFFF" stroke-width="0.6" stroke-linejoin="round"/>
<path d="M514.75 191.41L514.75 184.48C514.75 183.41 514.97 182.5 515.4 181.72C515.84 180.95 516.45 180.35 517.26 179.93C518.06 179.51 519 179.3 520.09 179.3C521.18 179.3 522.13 179.51 522.93 179.93C523.73 180.35 524.35 180.95 524.78 181.72C525.22 182.5 525.44 183.41 525.44 184.48L525.44 191.41L522.08 191.41L522.08 184.52C522.08 183.77 521.9 183.2 521.53 182.8C521.17 182.4 520.69 182.2 520.09 182.2C519.51 182.2 519.04 182.4 518.66 182.8C518.29 183.2 518.1 183.77 518.1 184.52L518.1 191.41L514.75 191.41" fill="#FFFFFF" stroke="#FFFFFF" stroke-width="0.6" stroke-linejoin="round"/>
<path d="M534.15 188.78C534.93 188.78 535.54 188.48 536 187.87C536.45 187.27 536.68 186.44 536.68 185.41C536.68 184.37 536.45 183.55 536 182.95C535.54 182.35 534.93 182.05 534.15 182.05C533.37 182.05 532.75 182.35 532.29 182.95C531.83 183.55 531.61 184.37 531.61 185.41C531.61 186.44 531.83 187.27 532.29 187.87C532.75 188.48 533.37 188.78 534.15 188.78M533.55 191.72C532.5 191.72 531.57 191.45 530.77 190.92C529.96 190.38 529.33 189.63 528.87 188.68C528.42 187.73 528.19 186.64 528.19 185.41C528.19 184.21 528.41 183.15 528.85 182.23C529.29 181.31 529.9 180.59 530.67 180.08C531.45 179.56 532.34 179.3 533.35 179.3C534.12 179.3 534.81 179.45 535.41 179.74C536.01 180.04 536.49 180.45 536.87 180.98L537.05 179.61L539.83 179.61L539.83 191.41L537.05 191.41L536.87 189.86C536.51 190.44 536.04 190.9 535.46 191.23C534.88 191.56 534.24 191.72 533.55 191.72" fill="#FFFFFF" stroke="#FFFFFF" stroke-width="0.6" stroke-linejoin="round"/>
<path d="M547.57 191.72C545.98 191.72 544.74 191.35 543.82 190.62C542.91 189.88 542.46 188.87 542.46 187.58L545.42 187.58C545.53 188.18 545.77 188.61 546.14 188.89C546.52 189.16 546.98 189.3 547.53 189.3C548.01 189.3 548.41 189.2 548.73 189.01C549.05 188.82 549.21 188.54 549.21 188.18C549.21 187.91 549.09 187.7 548.85 187.56C548.6 187.42 548.15 187.27 547.49 187.11C547.02 187 546.61 186.9 546.26 186.81C545.91 186.72 545.53 186.6 545.13 186.46C544.66 186.3 544.23 186.1 543.83 185.86C543.44 185.63 543.12 185.31 542.88 184.9C542.64 184.49 542.52 183.96 542.52 183.3C542.52 182.55 542.66 181.92 542.95 181.41C543.24 180.9 543.63 180.49 544.11 180.18C544.6 179.87 545.13 179.64 545.7 179.51C546.27 179.37 546.83 179.3 547.39 179.3C548.31 179.3 549.13 179.46 549.85 179.79C550.57 180.11 551.13 180.56 551.55 181.13C551.96 181.7 552.17 182.37 552.17 183.13L549.02 183.13C549.02 182.72 548.84 182.37 548.47 182.09C548.11 181.82 547.68 181.68 547.18 181.68C546.83 181.68 546.49 181.76 546.14 181.93C545.8 182.09 545.63 182.36 545.63 182.74C545.63 182.98 545.74 183.2 545.96 183.37C546.18 183.54 546.61 183.72 547.24 183.9C547.48 183.95 547.76 184.02 548.08 184.1C548.4 184.19 548.73 184.27 549.04 184.34C549.36 184.42 549.62 184.49 549.83 184.56C550.73 184.82 551.38 185.22 551.79 185.76C552.19 186.3 552.4 186.97 552.4 187.79C552.4 189.03 551.97 190 551.12 190.69C550.28 191.38 549.09 191.72 547.57 191.72" fill="#FFFFFF" stroke="#FFFFFF" stroke-width="0.6" stroke-linejoin="round"/>
<path d="M357.46 116.46L357.46 32.3L380.23 32.3L380.23 109.28L422.8 109.28L422.8 129.33L370.33 129.33C363.23 129.33 357.46 123.57 357.46 116.46" fill="#FFFFFF" stroke="#FFFFFF" stroke-width="0.6" stroke-linejoin="round"/>
<path d="M432.68 129.33L432.68 45.18C432.68 38.07 438.45 32.3 445.56 32.3L497.24 32.3L497.24 51.84L455.2 51.84L455.2 72.8L494.78 72.8L494.78 91.82L455.2 91.82L455.2 129.33L432.68 129.33" fill="#FFFFFF" stroke="#FFFFFF" stroke-width="0.6" stroke-linejoin="round"/>
<path d="M320.69 51.46C319.33 47.4 317.88 43.95 316.31 41.12C314.75 38.29 312.82 36.11 310.54 34.59C308.26 33.07 305.3 32.3 301.66 32.3C298.11 32.3 295.21 33.07 292.97 34.59C290.73 36.11 288.87 38.31 287.39 41.18C285.91 44.06 284.45 47.57 283.02 51.71L255.62 129.33L277.94 129.33L284.41 109.17C286.44 102.91 288.47 96.65 290.5 90.4L301.41 56.78C301.49 56.45 301.62 56.28 301.79 56.28C301.96 56.28 302.08 56.45 302.17 56.78L312.57 90.4C314.56 96.65 316.54 102.91 318.53 109.17L324.75 129.33L347.32 129.33L320.69 51.46" fill="#FFFFFF" stroke="#FFFFFF" stroke-width="0.6" stroke-linejoin="round"/>
<path d="M292.09 90.4H310.86V109.17H292.09Z" fill="#FFFFFF" stroke="#FFFFFF" stroke-width="0.6" stroke-linejoin="round"/>
<path d="M561.36 51.46C560.01 47.4 558.55 43.95 556.98 41.12C555.42 38.29 553.49 36.11 551.21 34.59C548.93 33.07 545.97 32.3 542.33 32.3C538.78 32.3 535.89 33.07 533.65 34.59C531.4 36.11 529.54 38.31 528.07 41.18C526.58 44.06 525.13 47.57 523.69 51.71L496.29 129.33L518.62 129.33L525.08 109.17C527.11 102.91 529.14 96.65 531.17 90.4L542.08 56.78C542.16 56.45 542.29 56.28 542.46 56.28C542.63 56.28 542.76 56.45 542.84 56.78L553.24 90.4C555.23 96.65 557.22 102.91 559.2 109.17L565.42 129.33L587.99 129.33L561.36 51.46" fill="#FFFFFF" stroke="#FFFFFF" stroke-width="0.6" stroke-linejoin="round"/>
<path d="M532.76 90.4H551.53V109.17H532.76Z" fill="#FFFFFF" stroke="#FFFFFF" stroke-width="0.6" stroke-linejoin="round"/>
<path d="M0 201.63H22.4V224.03H0Z" fill="#FFFFFF" stroke="#FFFFFF" stroke-width="0.6" stroke-linejoin="round"/>
<path d="M0 22.4H22.4V201.62H0Z" fill="#FFFFFF" stroke="#FFFFFF" stroke-width="0.6" stroke-linejoin="round"/>
<path d="M0 0H22.4V22.4H0Z" fill="#FFFFFF" stroke="#FFFFFF" stroke-width="0.6" stroke-linejoin="round"/>
<path d="M201.55 0H223.95V22.4H201.55Z" fill="#FFFFFF" stroke="#FFFFFF" stroke-width="0.6" stroke-linejoin="round"/>
<path d="M44.81 0L44.81 22.4C97.08 22.4 149.35 22.4 201.63 22.4L201.63 0L44.81 0" fill="#FFFFFF" stroke="#FFFFFF" stroke-width="0.6" stroke-linejoin="round"/>
<path d="M22.4 0H44.81V22.4H22.4Z" fill="#FFFFFF" stroke="#FFFFFF" stroke-width="0.6" stroke-linejoin="round"/>
<path d="M201.55 179.22H223.95V201.62H201.55Z" fill="#FFFFFF" stroke="#FFFFFF" stroke-width="0.6" stroke-linejoin="round"/>
<path d="M156.72 44.81H179.12V67.21H156.72Z" fill="#FFFFFF" stroke="#FFFFFF" stroke-width="0.6" stroke-linejoin="round"/>
<path d="M156.72 156.82H179.12V179.22H156.72Z" fill="#FFFFFF" stroke="#FFFFFF" stroke-width="0.6" stroke-linejoin="round"/>
<path d="M156.72 67.21H179.12V156.82H156.72Z" fill="#FFFFFF" stroke="#FFFFFF" stroke-width="0.6" stroke-linejoin="round"/>
<path d="M44.81 201.63H223.95V224.03H44.81Z" fill="#FFFFFF" stroke="#FFFFFF" stroke-width="0.6" stroke-linejoin="round"/>
<path d="M44.81 44.81L44.81 179.22L67.21 179.22L67.21 67.21L156.72 67.21L156.72 44.81L44.81 44.81" fill="#FFFFFF" stroke="#FFFFFF" stroke-width="0.6" stroke-linejoin="round"/>
<path d="M44.81 179.22H67.21V201.63H44.81Z" fill="#FFFFFF" stroke="#FFFFFF" stroke-width="0.6" stroke-linejoin="round"/>
<path d="M201.55 22.4H223.95V179.22H201.55Z" fill="#FFFFFF" stroke="#FFFFFF" stroke-width="0.6" stroke-linejoin="round"/>
<path d="M89.57 89.61H134.38V134.42H89.57Z" fill="#FFFFFF" stroke="#FFFFFF" stroke-width="0.6" stroke-linejoin="round"/>
</svg>